<svg width="40" height="38" viewBox="0 0 40 38" fill="none" xmlns="http://www.w3.org/2000/svg">
<path d="M21.7478 18.0886L20.1691 18.1164C19.6497 18.122 19.101 18.3169 18.4367 18.5811C17.7724 18.8452 17.0455 19.1941 16.4042 19.566C15.4238 20.1347 14.1303 21.3691 13.001 22.4932C11.8716 23.6174 10.9542 24.6166 10.9542 24.6166L10.2334 25.4018L13.1381 25.9477L13.3625 25.7433L21.7478 18.0886ZM17.4677 20.3723L12.7646 24.6678L12.6015 24.6354C12.9626 24.2508 13.1669 24.0185 13.8612 23.3274C14.9685 22.2253 16.3301 20.9901 17.0187 20.5908C17.158 20.51 17.3186 20.4511 17.4677 20.3724L17.4677 20.3723ZM10.6352 10.1806C9.71922 10.2255 8.81143 10.3624 7.9764 10.701C6.42801 11.3291 5.58854 12.2127 4.82366 12.9243C3.35335 14.2921 0.711362 17.6542 0.711362 17.6542L0 18.5486L8.96197 21.8475L9.32825 21.2783L16.3381 10.4176L14.9342 10.3083C14.9342 10.3083 13.9372 10.2304 13.3413 10.2108C12.4764 10.1821 11.5512 10.1357 10.6352 10.1806V10.1806ZM13.2822 11.8765C13.3166 11.8776 13.3474 11.8803 13.386 11.8822L8.26695 19.8134L2.80521 17.8016C3.53566 16.9017 5.0408 15.0152 5.98864 14.1333C6.80879 13.3704 7.37824 12.7443 8.62146 12.24C9.74302 11.7851 11.54 11.8176 13.282 11.8752L13.2822 11.8765ZM28.9892 23.7106L17.2716 30.1296L17.5812 30.8218L20.7576 37.933L21.625 37.2012C21.625 37.2012 24.6283 34.6716 25.9948 33.4052C26.8294 32.6317 27.8142 31.5884 28.3984 30.3944C29.2224 28.7102 29.5332 27.6963 29.5754 25.9176C29.5926 25.1813 29.3436 24.5958 29.3436 24.5958L28.9892 23.7106ZM27.7721 26.2847C27.706 27.5576 27.5783 28.2298 26.8716 29.6742C26.4535 30.5287 25.5853 31.4944 24.8321 32.1925C23.8052 33.1441 22.1986 34.5004 21.3839 35.1917L19.4412 30.8474L27.7721 26.2847ZM30.8799 0.0911929C28.4922 0.228928 25.8906 0.188353 23.4093 1.05295C21.9506 1.56124 20.6346 2.40951 19.5239 3.40862C17.9059 4.86401 16.9059 6.71231 15.8016 8.27794C12.9938 12.2585 7.89369 20.3955 7.89369 20.3955L7.54393 20.9531L18.1886 31.5048L18.7393 31.2307C18.7393 31.2307 24.016 28.6023 28.6229 25.8549C30.3673 24.8146 32.0152 23.7598 33.2693 22.8C34.8746 21.5714 36.5482 20.1949 37.7101 18.372C38.6004 16.9754 39.0025 15.399 39.3172 13.9302C39.9184 11.1248 40.0523 8.24728 39.9836 5.4321C39.9458 3.8785 39.7409 2.44809 39.3999 0.83225L39.2746 0.246832L38.6695 0.174742C37.006 -0.0185408 33.4797 -0.0589586 30.8798 0.0911353L30.8799 0.0911929ZM30.9792 1.75457C33.2498 1.62381 36.2224 1.69114 37.8236 1.82171C38.0653 3.08612 38.2594 4.25509 38.2891 5.47373C38.3557 8.20999 38.2237 10.9578 37.6605 13.5862C37.3568 15.0034 36.9784 16.3865 36.2755 17.4891C35.3025 19.0157 33.7947 20.2852 32.2271 21.4849C31.0671 22.3727 29.4575 23.4086 27.7437 24.4306C23.4654 26.9822 19.0327 29.1926 18.5077 29.4556L9.69459 20.7183C10.1263 20.0311 14.5804 12.9305 17.1936 9.2256C18.3712 7.55606 19.3312 5.83964 20.6677 4.63738C21.6372 3.76534 22.7775 3.03871 23.9765 2.62092C26.0795 1.88813 28.5115 1.89668 30.9792 1.75434V1.75457ZM8.4609 19.8844L5.38852 25.8177L13.8873 33.684L19.7934 30.6987L18.9473 29.8903L8.4609 19.8844ZM8.92887 22.6513L16.9219 30.2782L14.1756 31.6651L7.47305 25.4623L8.92887 22.6513ZM28.6844 5.67377C25.8701 5.67377 23.5748 7.92994 23.5748 10.6964C23.5748 13.4628 25.8701 15.7213 28.6844 15.7213C31.4988 15.7213 33.7964 13.4628 33.7964 10.6964C33.7964 7.92994 31.4988 5.67377 28.6844 5.67377ZM28.6844 7.10014C30.714 7.10014 32.3452 8.70134 32.3452 10.6964C32.3452 12.6914 30.714 14.295 28.6844 14.295C26.6548 14.295 25.0259 12.6914 25.0259 10.6964C25.0259 8.70134 26.6548 7.10014 28.6844 7.10014ZM4.95546 28.1437C4.73374 28.1003 4.4651 28.0933 4.20631 28.2739L4.18634 28.289C3.36752 28.9257 2.47449 29.7785 1.64333 30.6841L1.63952 30.6879L1.63565 30.6916C1.27959 31.1025 1.38369 31.7023 1.77981 32.0948C2.19724 32.5085 2.77742 32.5675 3.20494 32.2365L3.2088 32.2327L3.21454 32.229C4.06847 31.5203 4.86627 30.8435 5.75281 29.8361L5.75469 29.8342L5.75662 29.8305C6.00784 29.5351 5.94532 29.2366 5.88197 29.0173C5.81882 28.7987 5.72668 28.6159 5.55107 28.4459C5.3741 28.2747 5.17489 28.1896 4.95317 28.1462L4.95546 28.1437ZM4.771 29.0613C4.73415 29.0836 4.72226 29.0783 4.76526 29.087C4.81459 29.0983 4.88044 29.1398 4.86912 29.1287C4.85376 29.1136 4.92186 29.2087 4.9424 29.2753C4.1386 30.1762 3.41596 30.801 2.59796 31.4799C2.67263 31.4203 2.5432 31.4856 2.47506 31.4198C2.36066 31.3067 2.43421 31.2556 2.38046 31.3179C3.17274 30.4556 4.02347 29.6468 4.77217 29.0621L4.771 29.0613ZM7.65435 30.978C7.39819 30.928 7.09368 30.9221 6.8106 31.1197L6.79906 31.1253L6.78758 31.1309C5.76833 31.9234 4.64988 32.9891 3.61117 34.1209L3.60736 34.1247L3.60543 34.1303C3.21115 34.5856 3.31698 35.2672 3.778 35.724C4.25738 36.1991 4.93089 36.2555 5.40164 35.8913L5.40738 35.8876L5.41125 35.8819C6.4816 34.9936 7.47467 34.1531 8.58051 32.8966L8.58244 32.8929L8.58438 32.891C8.854 32.574 8.79055 32.2383 8.71682 31.9827C8.64311 31.727 8.53116 31.5086 8.3339 31.3183C8.13618 31.1278 7.90399 31.0267 7.64855 30.9767L7.65435 30.978ZM7.3802 31.9025C7.34201 31.9293 7.38105 31.9044 7.46292 31.9222C7.54699 31.9391 7.6445 31.9965 7.65429 32.0058H7.65622C7.66006 32.0095 7.75182 32.1444 7.78158 32.2473C7.81114 32.3501 7.75296 32.3781 7.84068 32.2751C6.7883 33.4699 5.85564 34.2628 4.79666 35.1418C4.836 35.1099 4.60603 35.1807 4.47524 35.0513C4.29596 34.8737 4.36757 34.741 4.35241 34.7586C5.35379 33.6684 6.42982 32.644 7.37991 31.9034L7.3802 31.9025ZM10.4928 33.6937C10.271 33.6503 10.0023 33.6427 9.74356 33.8239L9.72359 33.8389C8.90476 34.4757 8.01182 35.3285 7.18063 36.2341L7.17677 36.2379L7.17296 36.2417C6.81684 36.6526 6.921 37.2523 7.31712 37.6449C7.73452 38.0585 8.31472 38.1175 8.74224 37.7866L8.74605 37.7828L8.75179 37.779C9.60574 37.0704 10.4035 36.3936 11.2901 35.3862L11.2921 35.3824L11.2939 35.3805C11.5451 35.0852 11.4803 34.7867 11.4168 34.5674C11.3536 34.3481 11.265 34.1641 11.0883 33.9936C10.9113 33.8221 10.7121 33.7396 10.4904 33.6963L10.4928 33.6937ZM10.3083 34.6113C10.2715 34.6336 10.2595 34.6283 10.3025 34.6368C10.3518 34.6482 10.4177 34.687 10.4064 34.6764V34.6783C10.391 34.6633 10.4592 34.7583 10.4797 34.8247C9.67595 35.7256 8.95318 36.3504 8.13521 37.0294C8.21007 36.9698 8.07842 37.0351 8.01009 36.9692C7.89569 36.856 7.9715 36.8051 7.91794 36.8671C8.7102 36.0048 9.56101 35.1961 10.3097 34.6113H10.3083Z" fill="url(#paint0_linear_1070_6583)"/>
<defs>
<linearGradient id="paint0_linear_1070_6583" x1="5.52513" y1="35.5217" x2="18.4845" y2="1.32801" gradientUnits="userSpaceOnUse">
<stop stop-color="#35B8FA"/>
<stop offset="1" stop-color="#AC2DFE"/>
</linearGradient>
</defs>
</svg>
